<svg width="585" height="120" viewBox="0 0 585 120" fill="none" xmlns="http://www.w3.org/2000/svg">
<path d="M380.376 119.996C400.466 118.285 415.822 101.324 415.822 81.15C415.822 60.9759 400.466 44.1236 380.376 42.2787V119.996ZM373.208 119.996C353.118 118.285 337.762 101.324 337.762 81.15C337.762 60.9759 353.118 44.1236 373.208 42.2787V119.996Z" fill="#0B2038"/>
<path d="M0 119.824H35.1094V0.168457H0V119.824Z" fill="#0B2038"/>
<path d="M126.785 84.7211V119.996C145.319 118.308 160.578 103.178 162.071 84.7211H126.785ZM162.114 77.5448C160.622 59.0878 145.361 43.9575 126.827 42.2701V77.5448H162.114ZM119.63 119.989C99.722 118.188 84.1899 101.35 84.1899 81.176C84.1899 61.0026 99.6556 44.0868 119.63 42.2723V119.989ZM211.322 38.1304V119.994C230.224 118.254 246.43 102.749 246.43 80.8476V0C226.376 1.75452 211.322 17.0804 211.322 38.1304ZM204.165 120C184.129 118.14 168.722 101.325 168.722 81.1499C168.722 60.9744 184.247 44.0338 204.165 42.2765V120ZM464.892 42.2694V119.823H500.014V82.1967C500.014 59.4706 484.954 44.3199 464.892 42.2694ZM422.634 119.823H457.743V42.4425H422.634V119.823ZM549.431 84.7197V119.994C567.965 118.307 583.225 103.177 584.717 84.7197H549.431ZM584.717 77.5434C583.225 59.0864 567.965 43.9561 549.431 42.2687V77.5434H584.717ZM542.27 119.99C522.178 118.279 506.823 101.318 506.823 81.1421C506.823 60.9673 522.178 44.1144 542.27 42.2694V119.99ZM253.625 115.569V119.818H330.985V84.7176H296.616C268.783 84.7176 253.625 98.9557 253.625 115.569ZM289.385 77.5483H253.612V42.4481H330.971V46.8415C330.971 66.043 314.378 77.5483 289.385 77.5483Z" fill="#0B2038"/>
<path d="M77.4175 119.823V91.9453C77.4175 75.5034 69.4275 64.9339 55.2558 62.4117C67.9012 58.4746 77.6682 46.0192 77.6682 31.4562C77.6682 11.2814 64.2297 0.193481 46.556 0.193481H42.2672V119.823H77.4175Z" fill="#FB0436"/>
</svg>
